# xmcd
#
# Track frame offsets: 
#        150
#        23386
#        42802
#        69692
#        90881
#        104549
#        125838
#        142043
#        156032
#        176248
#        190815
#        209468
#        229169
#
# Disc length: 3321 seconds
#
# Revision: 0
# Processed by: cddbd v1.5.2PL0 Copyright (c) Steve Scherf et al.
# Submitted via: ExactAudioCopy v1.0b3
#
DISCID=b20cf70d
DTITLE=侃侃 - 侃侃-忧郁的美CD1
DYEAR=2013
DGENRE=Acid
TTITLE0=爱情物语
TTITLE1=青春是把零钱
TTITLE2=寂静的天空
TTITLE3=知道不知道
TTITLE4=青春碎语
TTITLE5=时光倒流
TTITLE6=蒲公英
TTITLE7=尘缘
TTITLE8=雁南飞
TTITLE9=羽翼
TTITLE10=无所事事的夏天
TTITLE11=穿过生命散发的芬芳
TTITLE12=你是我一生一世的牵挂
EXTD=
EXTT0=
EXTT1=
EXTT2=
EXTT3=
EXTT4=
EXTT5=
EXTT6=
EXTT7=
EXTT8=
EXTT9=
EXTT10=
EXTT11=
EXTT12=
PLAYORDER=
